<?xml version="1.0" standalone="no"?>
<!DOCTYPE svg PUBLIC "-//W3C//DTD SVG 20010904//EN"
 "http://www.w3.org/TR/2001/REC-SVG-20010904/DTD/svg10.dtd">
<svg version="1.0" xmlns="http://www.w3.org/2000/svg"
 width="235.000000pt" height="235.000000pt" viewBox="0 0 235.000000 235.000000"
 preserveAspectRatio="xMidYMid meet">

<g transform="translate(0.000000,235.000000) scale(0.100000,-0.100000)"
fill="#96C6FF" stroke="none">
<path d="M1002 2230 c-117 -31 -225 -93 -312 -180 -89 -89 -141 -174 -178
-290 -49 -157 -33 -359 40 -505 28 -54 99 -155 109 -155 5 0 9 15 9 33 1 96
119 327 254 496 105 131 235 231 327 250 44 10 57 8 102 -10 61 -25 127 -88
127 -122 0 -33 -50 -107 -98 -146 -31 -24 -50 -32 -73 -29 -54 5 -58 28 -15
93 21 31 35 59 32 62 -11 11 -115 -69 -185 -142 -38 -40 -92 -106 -121 -147
-123 -175 -234 -428 -187 -428 41 0 275 139 420 248 69 53 103 64 113 37 4 -8
15 -15 25 -15 25 0 24 -20 -4 -46 -99 -91 -299 -230 -399 -277 -37 -18 -68
-35 -68 -38 0 -15 125 -41 220 -46 139 -6 227 12 350 74 167 84 289 229 348
413 22 72 27 103 27 200 0 97 -5 128 -27 200 -37 116 -89 201 -178 290 -170
171 -426 240 -658 180z"/>
<path d="M815 721 c-72 -44 -115 -127 -123 -233 -6 -84 15 -144 64 -188 30
-26 42 -30 94 -30 73 0 140 24 140 51 0 23 -3 23 -43 2 -18 -9 -57 -17 -89
-17 -47 -1 -61 3 -83 24 -37 34 -46 63 -46 142 0 161 98 261 219 225 74 -21
100 -3 38 27 -47 22 -133 21 -171 -3z"/>
<path d="M1120 723 c-1 -10 -5 -49 -10 -88 -29 -211 -41 -348 -31 -358 15 -15
27 24 36 108 8 77 24 116 62 151 26 24 67 32 77 15 4 -5 1 -63 -6 -129 -10
-98 -9 -123 1 -136 25 -30 91 -15 91 20 0 9 -11 11 -37 7 l-36 -6 7 49 c3 26
9 85 12 129 6 73 5 82 -14 99 -24 21 -81 16 -102 -9 -25 -30 -32 -15 -25 54 4
37 7 76 8 87 1 10 -6 20 -15 22 -12 2 -18 -3 -18 -15z"/>
<path d="M1620 596 c-8 -11 -24 -13 -60 -9 -59 7 -103 -9 -130 -47 -24 -33
-26 -98 -5 -126 8 -10 15 -35 15 -55 0 -29 -8 -45 -35 -72 -28 -28 -35 -43
-35 -75 0 -82 74 -124 165 -93 114 38 107 175 -11 197 -35 6 -60 27 -50 42 3
6 25 13 48 16 74 12 108 54 108 134 0 32 5 54 15 62 8 7 15 19 15 26 0 18 -24
18 -40 0z m-32 -63 c20 -28 14 -63 -17 -94 -69 -69 -170 1 -115 79 9 13 26 27
38 32 29 13 78 3 94 -17z m-30 -269 c58 -37 -11 -132 -86 -120 -48 7 -62 23
-62 66 0 73 76 100 148 54z"/>
</g>
</svg>
